<?xml version="1.0" encoding="utf-8"?>
<!-- Generator: Adobe Illustrator 23.0.1, SVG Export Plug-In . SVG Version: 6.00 Build 0)  -->
<svg version="1.1" id="Layer_1" xmlns="http://www.w3.org/2000/svg" xmlns:xlink="http://www.w3.org/1999/xlink" x="0px" y="0px"
	 viewBox="0 0 875.2 623.2" style="enable-background:new 0 0 875.2 623.2;" xml:space="preserve">
<style type="text/css">
	.st0{clip-path:url(#SVGID_2_);}
	.st1{fill:none;stroke:#6FB7E5;stroke-width:2;stroke-miterlimit:10;}
	.st2{clip-path:url(#SVGID_4_);}
	.st3{clip-path:url(#SVGID_6_);}
	.st4{fill:none;stroke:#E64C56;stroke-width:2;stroke-miterlimit:10;}
	.st5{clip-path:url(#SVGID_8_);}
	.st6{clip-path:url(#SVGID_10_);}
	.st7{clip-path:url(#SVGID_12_);}
	.st8{clip-path:url(#SVGID_14_);}
	.st9{clip-path:url(#SVGID_16_);}
	.st10{clip-path:url(#SVGID_18_);}
	.st11{clip-path:url(#SVGID_20_);}
	.st12{clip-path:url(#SVGID_22_);}
	.st13{clip-path:url(#SVGID_24_);}
	.st14{clip-path:url(#SVGID_26_);}
	.st15{clip-path:url(#SVGID_28_);}
	.st16{clip-path:url(#SVGID_30_);}
	.st17{clip-path:url(#SVGID_32_);}
	.st18{clip-path:url(#SVGID_34_);}
	.st19{clip-path:url(#SVGID_36_);}
	.st20{clip-path:url(#SVGID_38_);}
	.st21{clip-path:url(#SVGID_40_);}
	.st22{display:none;opacity:0.6;}
	.st23{display:inline;fill:#5E5F5E;}
	.st24{display:none;}
	.st25{display:inline;}
	.st26{fill:#6FB7E5;}
	.st27{display:inline;fill:#FFFFFF;}
	.st28{font-family:'Impact';}
	.st29{font-size:16.3106px;}
	.st30{font-size:13.8062px;}
	.st31{fill:#E64C56;}
	.st32{font-size:16.3107px;}
	.st33{fill:#FFFFFF;}
	.st34{fill:#AAAAAA;}
	.st35{fill:#606060;}
	.st36{font-size:15.4386px;}
	.st37{fill:#019DCA;}
</style>
<image style="overflow:visible;enable-background:new    ;" width="3830" height="2240" xlink:href="https://static.wixstatic.com/media/a47041_b66e08011d7548d3a191e08c44e98848~mv2_d_3830_2241_s_2.png?dn=E56E9F588BB0DEFF.png"  transform="matrix(0.2219 0 0 0.2219 -2.8926 94.1602)">
</image>
<g id="Main_map_1_">
	<g id="m2">
		<g>
			<defs>
				<path id="SVGID_1_" d="M147.5,126.8c0,11.1-9,20.1-20.1,20.1s-20.1-9-20.1-20.1l0,0c0-11.1,9-20.1,20.1-20.1
					C138.6,106.6,147.5,115.6,147.5,126.8L147.5,126.8"/>
			</defs>
			<clipPath id="SVGID_2_">
				<use xlink:href="#SVGID_1_"  style="overflow:visible;"/>
			</clipPath>
			<g class="st0">

					<image style="overflow:visible;enable-background:new    ;" width="283" height="300" xlink:href="https://static.wixstatic.com/media/a47041_e959358173574f5a83487642ddd75aba~mv2.png?dn=ROCK+MAP+3-011.png"  transform="matrix(0.1489 0 0 0.1489 106.3129 107.099)">
				</image>
			</g>
		</g>
		<g>
			<path id="SVGID_99_" class="st1" d="M147.5,126.8c0,11.1-9,20.1-20.1,20.1s-20.1-9-20.1-20.1l0,0c0-11.1,9-20.1,20.1-20.1
				C138.6,106.6,147.5,115.6,147.5,126.8L147.5,126.8"/>
		</g>
	</g>
	<g id="m5">
		<g>
			<defs>
				<path id="SVGID_3_" d="M128.2,161c0,6.5-5.3,11.7-11.7,11.7s-11.7-5.3-11.7-11.7c0-6.5,5.3-11.7,11.7-11.7
					C122.9,149.2,128.2,154.4,128.2,161"/>
			</defs>
			<clipPath id="SVGID_4_">
				<use xlink:href="#SVGID_3_"  style="overflow:visible;"/>
			</clipPath>
			<g class="st2">

					<image style="overflow:visible;enable-background:new    ;" width="567" height="471" xlink:href="https://static.wixstatic.com/media/a47041_6c069f3ffc15466abdc796c59e2777bb~mv2.png?dn=ROCK+MAP+3-012.png"  transform="matrix(5.993003e-02 0 0 5.993003e-02 105.0159 149.7846)">
				</image>
			</g>
		</g>
		<g>
			<path id="SVGID_101_" class="st1" d="M128.2,161c0,6.5-5.3,11.7-11.7,11.7s-11.7-5.3-11.7-11.7c0-6.5,5.3-11.7,11.7-11.7
				C122.9,149.2,128.2,154.4,128.2,161"/>
		</g>
	</g>
	<g id="m4">
		<g>
			<defs>
				<path id="SVGID_5_" d="M111.3,280c0,8.8-7.1,15.9-15.9,15.9s-15.9-7.1-15.9-15.9c0-8.8,7.1-15.9,15.9-15.9
					S111.3,271.1,111.3,280"/>
			</defs>
			<clipPath id="SVGID_6_">
				<use xlink:href="#SVGID_5_"  style="overflow:visible;"/>
			</clipPath>
			<g transform="matrix(1 0 0 1 0 4.882812e-04)" class="st3">

					<image style="overflow:visible;enable-background:new    ;" width="397" height="393" xlink:href="https://static.wixstatic.com/media/a47041_e5a4efffbb384c0e84aaaff0c7d47296~mv2.png?dn=ROCK+MAP+3-013.png"  transform="matrix(7.954681e-02 0 0 7.954681e-02 79.8232 264.0666)">
				</image>
			</g>
		</g>
		<g>
			<path id="SVGID_103_" class="st4" d="M111.3,280c0,8.8-7.1,15.9-15.9,15.9s-15.9-7.1-15.9-15.9c0-8.8,7.1-15.9,15.9-15.9
				S111.3,271.1,111.3,280"/>
		</g>
	</g>
	<g id="m3">
		<g>
			<defs>
				<path id="SVGID_7_" d="M92.2,306.8c0,9.3-7.6,17-17,17s-17-7.6-17-17l0,0c0-9.3,7.6-17,17-17S92.2,297.4,92.2,306.8L92.2,306.8"
					/>
			</defs>
			<clipPath id="SVGID_8_">
				<use xlink:href="#SVGID_7_"  style="overflow:visible;"/>
			</clipPath>
			<g transform="matrix(1 0 0 1 0 0)" class="st5">

					<image style="overflow:visible;enable-background:new    ;" width="283" height="223" xlink:href="https://static.wixstatic.com/media/a47041_618b74aab1354a1c9b2dbc9fc0a8c3cb~mv2.png?dn=ROCK+MAP+3-014.png"  transform="matrix(0.1585 0 0 0.1585 57.6408 288.914)">
				</image>
			</g>
		</g>
		<g>
			<path id="SVGID_105_" class="st4" d="M92.2,306.8c0,9.3-7.6,17-17,17s-17-7.6-17-17l0,0c0-9.3,7.6-17,17-17
				S92.2,297.4,92.2,306.8L92.2,306.8"/>
		</g>
	</g>
	<g id="m1">
		<g>
			<defs>
				<path id="SVGID_9_" d="M139.7,390.2c0,13.1-10.6,23.8-23.8,23.8s-23.8-10.6-23.8-23.8c0-13.1,10.6-23.8,23.8-23.8
					C129,366.4,139.7,377.1,139.7,390.2"/>
			</defs>
			<clipPath id="SVGID_10_">
				<use xlink:href="#SVGID_9_"  style="overflow:visible;"/>
			</clipPath>
			<g class="st6">

					<image style="overflow:visible;enable-background:new    ;" width="283" height="247" xlink:href="https://static.wixstatic.com/media/a47041_a4c19c6ba482407eb05752faef5414df~mv2.png?dn=ROCK+MAP+3-015.png"  transform="matrix(0.1926 0 0 0.1926 88.9568 366.8053)">
				</image>
			</g>
		</g>
		<g>
			<path id="SVGID_107_" class="st4" d="M139.7,390.2c0,13.1-10.6,23.8-23.8,23.8s-23.8-10.6-23.8-23.8c0-13.1,10.6-23.8,23.8-23.8
				C129,366.4,139.7,377.1,139.7,390.2"/>
		</g>
	</g>
	<g id="m16">
		<g>
			<defs>
				<path id="SVGID_11_" d="M444.3,514.8c0,12.3-10,22.3-22.3,22.3s-22.3-10-22.3-22.3l0,0c0-12.3,10-22.3,22.3-22.3
					S444.3,502.5,444.3,514.8L444.3,514.8"/>
			</defs>
			<clipPath id="SVGID_12_">
				<use xlink:href="#SVGID_11_"  style="overflow:visible;"/>
			</clipPath>
			<g class="st7">

					<image style="overflow:visible;enable-background:new    ;" width="283" height="188" xlink:href="https://static.wixstatic.com/media/a47041_076ecd995bd948f2b6d31fe39e180012~mv2.png?dn=ROCK+MAP+3-016.png"  transform="matrix(0.2386 0 0 0.2386 391.2554 492.0863)">
				</image>
			</g>
		</g>
		<g>
			<path id="SVGID_109_" class="st4" d="M444.3,514.8c0,12.3-10,22.3-22.3,22.3s-22.3-10-22.3-22.3l0,0c0-12.3,10-22.3,22.3-22.3
				S444.3,502.5,444.3,514.8L444.3,514.8"/>
		</g>
	</g>
	<g id="m18">
		<g>
			<defs>
				<path id="SVGID_13_" d="M487.2,505.3c0,9.3-7.6,17-17,17c-9.3,0-17-7.6-17-17l0,0c0-9.3,7.6-17,17-17
					C479.5,488.3,487.2,495.9,487.2,505.3L487.2,505.3"/>
			</defs>
			<clipPath id="SVGID_14_">
				<use xlink:href="#SVGID_13_"  style="overflow:visible;"/>
			</clipPath>
			<g transform="matrix(1 0 0 1 0 4.882812e-04)" class="st8">

					<image style="overflow:visible;enable-background:new    ;" width="394" height="397" xlink:href="https://static.wixstatic.com/media/a47041_b38efd5671354349b563905f1af71ef8~mv2.png?dn=ROCK+MAP+3-017.png"  transform="matrix(8.624448e-02 0 0 8.624448e-02 452.787 490.0593)">
				</image>
			</g>
		</g>
		<g>
			<path id="SVGID_111_" class="st4" d="M487.2,505.3c0,9.3-7.6,17-17,17c-9.3,0-17-7.6-17-17l0,0c0-9.3,7.6-17,17-17
				C479.5,488.3,487.2,495.9,487.2,505.3L487.2,505.3"/>
		</g>
	</g>
	<g id="m12">
		<g>
			<defs>
				<path id="SVGID_15_" d="M500.2,328.6c0,10.3-8.3,18.6-18.6,18.6s-18.6-8.3-18.6-18.6s8.3-18.6,18.6-18.6
					S500.2,318.4,500.2,328.6"/>
			</defs>
			<clipPath id="SVGID_16_">
				<use xlink:href="#SVGID_15_"  style="overflow:visible;"/>
			</clipPath>
			<g class="st9">

					<image style="overflow:visible;enable-background:new    ;" width="283" height="290" xlink:href="https://static.wixstatic.com/media/a47041_e67b10b675e24e158052d521b2b77774~mv2.png?dn=ROCK+MAP+3-018.png"  transform="matrix(0.1219 0 0 0.1219 464.7704 311.9773)">
				</image>
			</g>
		</g>
		<g>
			<path id="SVGID_113_" class="st4" d="M500.2,328.6c0,10.3-8.3,18.6-18.6,18.6s-18.6-8.3-18.6-18.6s8.3-18.6,18.6-18.6
				S500.2,318.4,500.2,328.6"/>
		</g>
	</g>
	<g id="m13">
		<g>
			<defs>
				<path id="SVGID_17_" d="M562.8,336.8c0,9.5-7.8,17.3-17.3,17.3c-9.5,0-17.3-7.8-17.3-17.3s7.8-17.3,17.3-17.3
					C555.1,319.6,562.8,327.2,562.8,336.8"/>
			</defs>
			<clipPath id="SVGID_18_">
				<use xlink:href="#SVGID_17_"  style="overflow:visible;"/>
			</clipPath>
			<g class="st10">

					<image style="overflow:visible;enable-background:new    ;" width="591" height="714" xlink:href="https://static.wixstatic.com/media/a47041_6aafb11ab9a04832a320626f54730e98~mv2.png?dn=ROCK+MAP+3-019.png"  transform="matrix(5.979617e-02 0 0 5.979617e-02 527.9566 321.4634)">
				</image>
			</g>
		</g>
		<g>
			<path id="SVGID_115_" class="st4" d="M562.8,336.8c0,9.5-7.8,17.3-17.3,17.3c-9.5,0-17.3-7.8-17.3-17.3s7.8-17.3,17.3-17.3
				C555.1,319.6,562.8,327.2,562.8,336.8"/>
		</g>
	</g>
	<g id="m14">
		<g>
			<defs>
				<path id="SVGID_19_" d="M594.1,274.5c0,7.5-6.1,13.6-13.6,13.6s-13.6-6.1-13.6-13.6c0-7.5,6.1-13.6,13.6-13.6
					S594.1,267,594.1,274.5"/>
			</defs>
			<clipPath id="SVGID_20_">
				<use xlink:href="#SVGID_19_"  style="overflow:visible;"/>
			</clipPath>
			<g class="st11">

					<image style="overflow:visible;enable-background:new    ;" width="283" height="188" xlink:href="https://static.wixstatic.com/media/a47041_b7f7a5bc503a44e490edeb4b3ec18366~mv2.png?dn=ROCK+MAP+3-0110.png"  transform="matrix(0.1374 0 0 0.1374 560.7585 260.1906)">
				</image>
			</g>
		</g>
		<g>
			<path id="SVGID_117_" class="st1" d="M594.1,274.5c0,7.5-6.1,13.6-13.6,13.6s-13.6-6.1-13.6-13.6c0-7.5,6.1-13.6,13.6-13.6
				S594.1,267,594.1,274.5"/>
		</g>
	</g>
	<g id="m11">
		<g>
			<defs>
				<path id="SVGID_21_" d="M655.3,261.1c0,10.4-8.5,19-19,19s-19-8.5-19-19c0-10.4,8.5-19,19-19S655.3,250.7,655.3,261.1"/>
			</defs>
			<clipPath id="SVGID_22_">
				<use xlink:href="#SVGID_21_"  style="overflow:visible;"/>
			</clipPath>
			<g class="st12">

					<image style="overflow:visible;enable-background:new    ;" width="283" height="283" xlink:href="https://static.wixstatic.com/media/a47041_4b3f186b430e491b96f8397cc80d4721~mv2.png?dn=ROCK+MAP+3-0111.png"  transform="matrix(0.1297 0 0 0.1297 617.0701 243.8082)">
				</image>
			</g>
		</g>
		<g>
			<path id="SVGID_119_" class="st4" d="M655.3,261.1c0,10.4-8.5,19-19,19s-19-8.5-19-19c0-10.4,8.5-19,19-19
				S655.3,250.7,655.3,261.1"/>
		</g>
	</g>
	<g id="m15">
		<g>
			<defs>
				<path id="SVGID_23_" d="M644.7,319.5c0,7.3-5.9,13.1-13.1,13.1c-7.3,0-13.1-5.9-13.1-13.1l0,0c0-7.3,5.9-13.1,13.1-13.1
					C638.7,306.2,644.7,312.2,644.7,319.5L644.7,319.5"/>
			</defs>
			<clipPath id="SVGID_24_">
				<use xlink:href="#SVGID_23_"  style="overflow:visible;"/>
			</clipPath>
			<g class="st13">

					<image style="overflow:visible;enable-background:new    ;" width="283" height="215" xlink:href="https://static.wixstatic.com/media/a47041_d097286f47ec41b4b43ce8c581a668b3~mv2.png?dn=ROCK+MAP+3-0112.png"  transform="matrix(0.1249 0 0 0.1249 614.088 305.7086)">
				</image>
			</g>
		</g>
		<g>
			<path id="SVGID_121_" class="st4" d="M644.7,319.5c0,7.3-5.9,13.1-13.1,13.1c-7.3,0-13.1-5.9-13.1-13.1l0,0
				c0-7.3,5.9-13.1,13.1-13.1C638.7,306.2,644.7,312.2,644.7,319.5L644.7,319.5"/>
		</g>
	</g>
	<g id="m8">
		<g>
			<defs>
				<path id="SVGID_25_" d="M710.8,289c0,10.3-8.3,18.6-18.6,18.6s-18.6-8.3-18.6-18.6s8.3-18.6,18.6-18.6S710.8,278.8,710.8,289"/>
			</defs>
			<clipPath id="SVGID_26_">
				<use xlink:href="#SVGID_25_"  style="overflow:visible;"/>
			</clipPath>
			<g class="st14">

					<image style="overflow:visible;enable-background:new    ;" width="193" height="159" xlink:href="https://static.wixstatic.com/media/a47041_1871c960d5604b6fb1af670777d64ab6~mv2.png?dn=ROCK+MAP+3-0113.png"  transform="matrix(0.2324 0 0 0.2324 672.1125 270.3304)">
				</image>
			</g>
		</g>
		<g>
			<path id="SVGID_123_" class="st4" d="M710.8,289c0,10.3-8.3,18.6-18.6,18.6s-18.6-8.3-18.6-18.6s8.3-18.6,18.6-18.6
				S710.8,278.8,710.8,289"/>
		</g>
	</g>
	<g id="m20">
		<g>
			<defs>
				<path id="SVGID_27_" d="M705.1,388.7c0,6.5-5.3,11.7-11.7,11.7s-11.7-5.3-11.7-11.7c0-6.5,5.3-11.7,11.7-11.7
					C699.9,376.9,705.1,382.2,705.1,388.7"/>
			</defs>
			<clipPath id="SVGID_28_">
				<use xlink:href="#SVGID_27_"  style="overflow:visible;"/>
			</clipPath>
			<g class="st15">

					<image style="overflow:visible;enable-background:new    ;" width="604" height="771" xlink:href="https://static.wixstatic.com/media/a47041_688930e4f03b46ef8ed437fe07665863~mv2.png?dn=ROCK+MAP+3-0114.png"  transform="matrix(3.878428e-02 0 0 3.878428e-02 682.0622 375.7267)">
				</image>
			</g>
		</g>
		<g>
			<path id="SVGID_125_" class="st1" d="M705.1,388.7c0,6.5-5.3,11.7-11.7,11.7s-11.7-5.3-11.7-11.7c0-6.5,5.3-11.7,11.7-11.7
				C699.9,376.9,705.1,382.2,705.1,388.7"/>
		</g>
	</g>
	<g id="m19">
		<g>
			<defs>
				<path id="SVGID_29_" d="M747.1,563.6c0,8-6.5,14.4-14.4,14.4c-8,0-14.4-6.5-14.4-14.4l0,0c0-8,6.5-14.4,14.4-14.4
					C740.6,549.2,747.1,555.7,747.1,563.6L747.1,563.6"/>
			</defs>
			<clipPath id="SVGID_30_">
				<use xlink:href="#SVGID_29_"  style="overflow:visible;"/>
			</clipPath>
			<g class="st16">

					<image style="overflow:visible;enable-background:new    ;" width="283" height="439" xlink:href="https://static.wixstatic.com/media/a47041_53e1f3bd83594bb5b696f796d195d954~mv2.png?dn=ROCK+MAP+3-0115.png"  transform="matrix(9.911206e-02 0 0 9.911206e-02 718.4323 541.0627)">
				</image>
			</g>
		</g>
		<g>
			<path id="SVGID_127_" class="st4" d="M747.1,563.6c0,8-6.5,14.4-14.4,14.4c-8,0-14.4-6.5-14.4-14.4l0,0c0-8,6.5-14.4,14.4-14.4
				C740.6,549.2,747.1,555.7,747.1,563.6L747.1,563.6"/>
		</g>
	</g>
	<g id="m17">
		<g>
			<defs>
				<path id="SVGID_31_" d="M706.3,528.9c0,9.7-7.9,17.7-17.7,17.7c-9.7,0-17.7-7.9-17.7-17.7l0,0c0-9.7,7.9-17.7,17.7-17.7
					S706.3,519.1,706.3,528.9L706.3,528.9"/>
			</defs>
			<clipPath id="SVGID_32_">
				<use xlink:href="#SVGID_31_"  style="overflow:visible;"/>
			</clipPath>
			<g class="st17">

					<image style="overflow:visible;enable-background:new    ;" width="283" height="283" xlink:href="https://static.wixstatic.com/media/a47041_6ea95fefe3f348ee808922e83deb5283~mv2.png?dn=ROCK+MAP+3-0116.png"  transform="matrix(0.1249 0 0 0.1249 671.1379 512.2563)">
				</image>
			</g>
		</g>
		<g>
			<path id="SVGID_129_" class="st4" d="M706.3,528.9c0,9.7-7.9,17.7-17.7,17.7c-9.7,0-17.7-7.9-17.7-17.7l0,0
				c0-9.7,7.9-17.7,17.7-17.7S706.3,519.1,706.3,528.9L706.3,528.9"/>
		</g>
	</g>
	<g id="m6">
		<g>
			<defs>
				<path id="SVGID_33_" d="M833.1,224.5c0,14.4-11.6,26.1-26.1,26.1c-14.4,0-26.1-11.6-26.1-26.1s11.6-26.1,26.1-26.1
					C821.4,198.4,833.1,210.2,833.1,224.5"/>
			</defs>
			<clipPath id="SVGID_34_">
				<use xlink:href="#SVGID_33_"  style="overflow:visible;"/>
			</clipPath>
			<g class="st18">

					<image style="overflow:visible;enable-background:new    ;" width="283" height="285" xlink:href="https://static.wixstatic.com/media/a47041_940299a4f32c48af8c2b3febda66fa10~mv2.png?dn=ROCK+MAP+3-0117.png"  transform="matrix(0.2065 0 0 0.2065 780.4742 195.475)">
				</image>
			</g>
		</g>
		<g>
			<path id="SVGID_131_" class="st1" d="M833.1,224.5c0,14.4-11.6,26.1-26.1,26.1c-14.4,0-26.1-11.6-26.1-26.1s11.6-26.1,26.1-26.1
				C821.4,198.4,833.1,210.2,833.1,224.5"/>
		</g>
	</g>
	<g id="m7">
		<g>
			<defs>
				<path id="SVGID_35_" d="M758.5,309.3c0,10.8-8.7,19.5-19.5,19.5c-10.8,0-19.5-8.7-19.5-19.5l0,0c0-10.8,8.7-19.5,19.5-19.5
					C749.8,289.8,758.5,298.5,758.5,309.3L758.5,309.3"/>
			</defs>
			<clipPath id="SVGID_36_">
				<use xlink:href="#SVGID_35_"  style="overflow:visible;"/>
			</clipPath>
			<g class="st19">

					<image style="overflow:visible;enable-background:new    ;" width="283" height="289" xlink:href="https://static.wixstatic.com/media/a47041_83decfe7c97747978defc998092be83a~mv2.png?dn=ROCK+MAP+3-0118.png"  transform="matrix(0.1345 0 0 0.1345 720.7341 290.3821)">
				</image>
			</g>
		</g>
		<g>
			<path id="SVGID_133_" class="st4" d="M758.5,309.3c0,10.8-8.7,19.5-19.5,19.5c-10.8,0-19.5-8.7-19.5-19.5l0,0
				c0-10.8,8.7-19.5,19.5-19.5C749.8,289.8,758.5,298.5,758.5,309.3L758.5,309.3"/>
		</g>
	</g>
	<g id="m10">
		<g>
			<defs>
				<path id="SVGID_37_" d="M776.4,285.2c0,9-7.3,16.3-16.3,16.3c-9,0-16.3-7.3-16.3-16.3l0,0c0-9,7.3-16.3,16.3-16.3
					C769.1,268.9,776.4,276.2,776.4,285.2L776.4,285.2"/>
			</defs>
			<clipPath id="SVGID_38_">
				<use xlink:href="#SVGID_37_"  style="overflow:visible;"/>
			</clipPath>
			<g transform="matrix(1 0 0 1 0 4.882812e-04)" class="st20">

					<image style="overflow:visible;enable-background:new    ;" width="394" height="394" xlink:href="https://static.wixstatic.com/media/a47041_9f269fc254b641ca8f8da73cd653b440~mv2.png?dn=ROCK+MAP+3-0119.png"  transform="matrix(8.279470e-02 0 0 8.279470e-02 744.154 268.4668)">
				</image>
			</g>
		</g>
		<g>
			<path id="SVGID_135_" class="st4" d="M776.4,285.2c0,9-7.3,16.3-16.3,16.3c-9,0-16.3-7.3-16.3-16.3l0,0c0-9,7.3-16.3,16.3-16.3
				C769.1,268.9,776.4,276.2,776.4,285.2L776.4,285.2"/>
		</g>
	</g>
	<g id="m9">
		<g>
			<defs>
				<path id="SVGID_39_" d="M798,262.1c0,9.5-7.8,17.3-17.3,17.3c-9.5,0-17.3-7.8-17.3-17.3c0-9.5,7.8-17.3,17.3-17.3
					C790.3,244.9,798,252.6,798,262.1"/>
			</defs>
			<clipPath id="SVGID_40_">
				<use xlink:href="#SVGID_39_"  style="overflow:visible;"/>
			</clipPath>
			<g class="st21">

					<image style="overflow:visible;enable-background:new    ;" width="283" height="439" xlink:href="https://static.wixstatic.com/media/a47041_b854b03a5a774eea8d7cdd017f65689a~mv2.png?dn=ROCK+MAP+3-0120.png"  transform="matrix(0.1207 0 0 0.1207 763.9604 235.9762)">
				</image>
			</g>
		</g>
		<g>
			<path id="SVGID_137_" class="st4" d="M798,262.1c0,9.5-7.8,17.3-17.3,17.3c-9.5,0-17.3-7.8-17.3-17.3c0-9.5,7.8-17.3,17.3-17.3
				C790.3,244.9,798,252.6,798,262.1"/>
		</g>
	</g>
	<g id="showblue_1_" class="st22">
		<path class="st23" d="M142.3,111.9c-4-4-9.2-6.1-14.9-6.1l0,0c-11.6,0-21,9.4-21,21c0,5.6,2.2,10.9,6.2,14.9c4,4,9.2,6.1,14.9,6.1
			l0,0c5.6,0,10.9-2.2,14.9-6.2c4-4,6.2-9.2,6.2-14.9l0,0C148.5,121.1,146.2,115.9,142.3,111.9z"/>
		<path class="st23" d="M580.5,260c-8,0-14.5,6.5-14.5,14.5s6.5,14.5,14.5,14.5s14.5-6.5,14.5-14.5S588.5,260,580.5,260z"/>
		<path class="st23" d="M693.3,376c-7,0-12.7,5.7-12.7,12.7c0,7,5.7,12.7,12.7,12.7s12.7-5.7,12.7-12.7
			C706.1,381.7,700.3,376,693.3,376z"/>
		<path class="st23" d="M807,197.5c-14.9,0-27,12.1-27,27s12.1,27,27,27c14.9,0,27-12.1,27-27C834,209.6,821.9,197.5,807,197.5z"/>
		<path class="st23" d="M116.5,148.3c-7,0-12.7,5.7-12.7,12.7c0,7,5.7,12.7,12.7,12.7s12.7-5.7,12.7-12.7
			C129.1,154,123.4,148.3,116.5,148.3z"/>
	</g>
	<g id="showred_1_" class="st22">
		<path class="st23" d="M92.2,306.8L92.2,306.8h0.9c0-4.3-1.5-8.1-4-11.2c1.9,0.7,4,1.2,6.1,1.2c9.2,0,16.8-7.6,16.8-16.8
			s-7.6-16.8-16.8-16.8s-16.8,7.6-16.8,16.8c0,3.9,1.3,7.4,3.5,10.3c-2.1-0.8-4.3-1.4-6.7-1.4l0,0c-9.9,0-17.9,8-17.8,17.9
			c0,4.8,1.8,9.2,5.3,12.7s7.9,5.3,12.7,5.3l0,0c4.8,0,9.2-1.8,12.7-5.3c3.4-3.4,5.3-7.9,5.3-12.7L92.2,306.8L92.2,306.8z"/>
		<path class="st23" d="M115.9,365.6c-13.6,0-24.7,11.1-24.7,24.7c0,13.6,11.1,24.7,24.7,24.7s24.7-11.1,24.7-24.7
			C140.6,376.6,129.5,365.6,115.9,365.6z"/>
		<path class="st23" d="M422.1,491.6L422.1,491.6c-12.8,0-23.2,10.4-23.2,23.2c0,12.8,10.4,23.2,23.2,23.2l0,0
			c12.8,0,23.2-10.4,23.2-23.2l0,0c0-6.2-2.4-12-6.7-16.4C434.1,494,428.3,491.6,422.1,491.6z"/>
		<path class="st23" d="M470.2,487.4L470.2,487.4c-4.8,0-9.2,1.8-12.7,5.3c-3.4,3.4-5.3,7.9-5.3,12.7c0,9.9,8,17.8,17.9,17.8l0,0
			c9.9,0,17.9-8,17.8-17.9l0,0c0-4.8-1.8-9.2-5.3-12.7C479.4,489.3,475,487.4,470.2,487.4z"/>
		<path class="st23" d="M481.6,309.1c-10.7,0-19.5,8.8-19.5,19.5s8.8,19.5,19.5,19.5s19.5-8.8,19.5-19.5S492.3,309.1,481.6,309.1z"
			/>
		<path class="st23" d="M545.5,318.6c-10.1,0-18.2,8.1-18.2,18.2c0,10.1,8.1,18.2,18.2,18.2s18.2-8.1,18.2-18.2
			C563.7,326.8,555.5,318.6,545.5,318.6z"/>
		<path class="st23" d="M636.3,241.2c-10.9,0-19.8,8.9-19.8,19.8s8.9,19.8,19.8,19.8c10.9,0,19.8-8.9,19.8-19.8
			C656.2,250.1,647.3,241.2,636.3,241.2z"/>
		<path class="st23" d="M631.4,305.3L631.4,305.3c-7.8,0-14.1,6.3-14.1,14.1c0,7.8,6.3,14.1,14.1,14.1l0,0c7.8,0,14.1-6.3,14.1-14.1
			l0,0C645.6,311.7,639.2,305.3,631.4,305.3z"/>
		<path class="st23" d="M692.1,269.5c-10.7,0-19.5,8.8-19.5,19.5c0,10.7,8.8,19.5,19.5,19.5s19.5-8.8,19.5-19.5
			C711.6,278.3,702.9,269.5,692.1,269.5z"/>
		<path class="st23" d="M732.7,548.3L732.7,548.3c-4.1,0-8,1.6-10.8,4.5c-2.9,2.9-4.5,6.7-4.5,10.8c0,4.1,1.6,8,4.5,10.8
			c2.9,2.9,6.7,4.5,10.8,4.5l0,0c8.4,0,15.3-6.8,15.3-15.3l0,0c0-4.1-1.6-8-4.5-10.8C740.5,550,736.8,548.3,732.7,548.3z"/>
		<path class="st23" d="M707.2,528.9c0-5-1.9-9.6-5.5-13.1c-3.5-3.5-8.1-5.5-13.1-5.5l0,0c-10.3,0-18.6,8.3-18.6,18.6
			c0,5,1.9,9.6,5.5,13.1c3.5,3.5,8.1,5.5,13.1,5.5l0,0c5,0,9.6-1.9,13.1-5.5C705.2,538.5,707.2,533.8,707.2,528.9h-0.9l0,0H707.2z"
			/>
		<path class="st23" d="M780.7,243.9c-10.1,0-18.2,8.1-18.2,18.2c0,2.1,0.4,4.3,1.1,6.1c-1.1-0.2-2.3-0.4-3.4-0.4
			c-9.5,0-17.2,7.7-17.2,17.2c0,1.5,0.2,2.9,0.6,4.3c-1.5-0.3-3-0.5-4.4-0.5l0,0c-5.5,0-10.5,2.1-14.4,6c-3.9,3.9-6,9-6,14.4
			c0,11.3,9.2,20.4,20.4,20.4c5.5,0,10.5-2.1,14.4-6c3.9-3.9,6-9,6-14.4h-0.9l0,0h0.9c0-2.4-0.5-4.8-1.3-7c0.6,0.1,1.3,0.1,1.9,0.1
			c4.6,0,8.9-1.8,12.2-5c3.2-3.2,5-7.6,5-12.2l0,0c0-1.8-0.3-3.6-0.8-5.3c1.4,0.4,2.8,0.6,4.3,0.6c10.1,0,18.2-8.1,18.2-18.2
			C798.9,252.2,790.7,243.9,780.7,243.9z"/>
	</g>
	<g id="mt2" class="st24">
		<g class="st25">
			<path class="st26" d="M184.6,210.3H70.4c-4.3,0-7.7-3.4-7.7-7.7v-35.5c0-4.3,3.4-7.7,7.7-7.7h114.1c4.3,0,7.7,3.4,7.7,7.7v35.5
				C192.3,206.9,188.9,210.3,184.6,210.3z"/>

				<rect x="119.4" y="151.5" transform="matrix(0.7071 -0.7071 0.7071 0.7071 -75.4182 136.7769)" class="st26" width="15.9" height="15.9"/>
		</g>
		<text transform="matrix(1 0 0 1 115.2369 183.0838)" class="st27 st28 st29">Yes</text>
		<text transform="matrix(1.0135 0 0 1 103.9537 199.2459)" class="st27 st28 st30">(Seattle)</text>
	</g>
	<g id="mt4" class="st24">
		<g class="st25">
			<path class="st31" d="M152.9,358.9H38.7c-4.3,0-7.7-3.4-7.7-7.7v-35.5c0-4.3,3.4-7.7,7.7-7.7h114.1c4.3,0,7.7,3.4,7.7,7.7v35.5
				C160.6,355.5,157.1,358.9,152.9,358.9z"/>

				<rect x="87.8" y="300.1" transform="matrix(0.7071 -0.7071 0.7071 0.7071 -189.8037 157.9197)" class="st31" width="15.9" height="15.9"/>
		</g>
		<text transform="matrix(1 0 0 1 39.2085 331.6912)" class="st27 st28 st29">Jackson Browne</text>
		<text transform="matrix(1.0135 0 0 1 57.7447 347.8513)" class="st27 st28 st30">(Sacramento)</text>
	</g>
	<g id="mt3" class="st24">
		<g class="st25">
			<path class="st31" d="M132,387.1H17.9c-4.3,0-7.7-3.4-7.7-7.7v-35.5c0-4.3,3.4-7.7,7.7-7.7H132c4.3,0,7.7,3.4,7.7,7.7v35.5
				C139.7,383.5,136.3,387.1,132,387.1z"/>

				<rect x="67" y="328.2" transform="matrix(0.7071 -0.7071 0.7071 0.7071 -215.7479 151.4329)" class="st31" width="15.9" height="15.9"/>
		</g>
		<text transform="matrix(1 0 0 1 48.1158 359.783)" class="st27 st28 st29">Nirvana</text>
		<text transform="matrix(1.0135 0 0 1 31.6587 375.9421)" class="st27 st28 st30">(San Francisco)</text>
	</g>
	<g id="mt1" class="st24">
		<g class="st25">
			<path class="st31" d="M171.8,476.7H57.8c-4.3,0-7.7-3.4-7.7-7.7v-35.5c0-4.3,3.4-7.7,7.7-7.7h114.1c4.3,0,7.7,3.4,7.7,7.7v35.5
				C179.5,473.3,176.1,476.7,171.8,476.7z"/>

				<rect x="106.8" y="417.9" transform="matrix(0.7071 -0.7071 0.7071 0.7071 -267.5112 205.8743)" class="st31" width="15.9" height="15.9"/>
		</g>
		<text transform="matrix(1 0 0 1 81.1353 449.49)" class="st27 st28 st29">Pearl Jam</text>
		<text transform="matrix(1.0135 0 0 1 77.7779 465.6511)" class="st27 st28 st30">(Los Angeles)</text>
	</g>
	<g id="mt16" class="st24">
		<g class="st25">
			<path class="st31" d="M479.1,600H365c-4.3,0-7.7-3.4-7.7-7.7v-35.5c0-4.3,3.4-7.7,7.7-7.7h114.1c4.3,0,7.7,3.4,7.7,7.7v35.5
				C486.8,596.6,483.3,600,479.1,600z"/>

				<rect x="414" y="541.2" transform="matrix(0.7071 -0.7071 0.7071 0.7071 -264.7166 459.1701)" class="st31" width="15.9" height="15.9"/>
		</g>
		<text transform="matrix(1 0 0 1 380.1089 572.7263)" class="st27 st28 st29">Motley Crue</text>
		<text transform="matrix(1.0135 0 0 1 384.8189 588.8855)" class="st27 st28 st30">(San Antonio)</text>
	</g>
	<g id="mt19" class="st24">
		<g class="st25">
			<path class="st31" d="M789.9,640.7H675.7c-4.3,0-7.7-3.4-7.7-7.7v-35.5c0-4.3,3.4-7.7,7.7-7.7h114.1c4.3,0,7.7,3.4,7.7,7.7v35.5
				C797.6,637.3,794.1,640.7,789.9,640.7z"/>

				<rect x="724.8" y="581.9" transform="matrix(0.7071 -0.7071 0.7071 0.7071 -202.4978 690.8915)" class="st31" width="15.9" height="15.9"/>
		</g>
		<text transform="matrix(1 0 0 1 701.4078 613.5017)" class="st27 st28 st29">Billy Joel</text>
		<text transform="matrix(1.0135 0 0 1 711.9654 629.6619)" class="st27 st28 st30">(Miami)</text>
	</g>
	<g id="mt15" class="st24">
		<g class="st25">
			<path class="st31" d="M688.4,395.2H574.3c-4.3,0-7.7-3.4-7.7-7.7V352c0-4.3,3.4-7.7,7.7-7.7h114.1c4.3,0,7.7,3.4,7.7,7.7v35.5
				C696.1,391.8,692.6,395.2,688.4,395.2z"/>

				<rect x="623.3" y="336.4" transform="matrix(0.7071 -0.7071 0.7071 0.7071 -58.6034 547.2004)" class="st31" width="15.9" height="15.9"/>
		</g>
		<text transform="matrix(1 0 0 1 585.7828 367.9373)" class="st27 st28 st29">Bryan Adams</text>
		<text transform="matrix(1.0135 0 0 1 598.5279 384.0974)" class="st27 st28 st30">(Cincinnati)</text>
	</g>
	<g id="mt11" class="st24">
		<g class="st25">
			<path class="st31" d="M693.9,343.5H579.7c-4.3,0-7.7-3.4-7.7-7.7v-35.5c0-4.3,3.4-7.7,7.7-7.7h114.1c4.3,0,7.7,3.4,7.7,7.7v35.5
				C701.5,340.1,698.1,343.5,693.9,343.5z"/>

				<rect x="628.7" y="284.7" transform="matrix(0.7071 -0.7071 0.7071 0.7071 -20.4669 535.8995)" class="st31" width="15.9" height="15.9"/>
		</g>
		<text transform="matrix(1 0 0 1 593.1509 316.2869)" class="st27 st28 st29">J. Geils Band</text>
		<text transform="matrix(1.0135 0 0 1 613.9771 332.447)" class="st27 st28 st30">(Detroit)</text>
	</g>
	<g id="mt8" class="st24">
		<g class="st25">
			<path class="st31" d="M749.1,372.5H635c-4.3,0-7.7-3.4-7.7-7.7v-35.5c0-4.3,3.4-7.7,7.7-7.7H749c4.3,0,7.7,3.4,7.7,7.7v35.5
				C756.8,369.1,753.3,372.5,749.1,372.5z"/>

				<rect x="684" y="313.7" transform="matrix(0.7071 -0.7071 0.7071 0.7071 -24.7816 583.5054)" class="st31" width="15.9" height="15.9"/>
		</g>
		<text transform="matrix(1 0 0 1 654.9302 345.2839)" class="st27 st28 st29">Neil Young</text>
		<text transform="matrix(1.0135 0 0 1 658.8843 361.4451)" class="st27 st28 st30">(Pittsburgh)</text>
	</g>
	<g id="mt7" class="st24">
		<g class="st25">
			<path class="st31" d="M796.3,392.2l-114.1,0.4c-4.3,0-7.7-3.4-7.7-7.7l-0.1-35.5c0-4.3,3.4-7.7,7.7-7.7l114.1-0.4
				c4.3,0,7.7,3.4,7.7,7.7l0.1,35.5C804,388.8,800.5,392.2,796.3,392.2z"/>

				<rect x="730.9" y="333.8" transform="matrix(0.7048 -0.7094 0.7094 0.7048 -24.311 625.0515)" class="st31" width="15.9" height="15.9"/>
		</g>
		<text transform="matrix(1 -3.280000e-03 3.280000e-03 1 721.6346 365.1426)" class="st27 st28 st32">R.E.M</text>
		<text transform="matrix(1.0135 -3.324280e-03 3.280000e-03 1 701.307 381.3724)" class="st27 st28 st30">(Washington)</text>
	</g>
	<g id="mt10" class="st24">
		<g class="st25">
			<path class="st31" d="M817.2,363.3l-114.1,0.4c-4.3,0-7.7-3.4-7.7-7.7l-0.1-35.5c0-4.3,3.4-7.7,7.7-7.7l114.1-0.4
				c4.3,0,7.7,3.4,7.7,7.7l0.1,35.5C824.9,359.8,821.4,363.3,817.2,363.3z"/>

				<rect x="751.9" y="304.8" transform="matrix(0.7048 -0.7094 0.7094 0.7048 2.4331 631.3341)" class="st31" width="15.9" height="15.9"/>
		</g>
		<text transform="matrix(1 -3.280000e-03 3.280000e-03 1 717.8103 336.2284)" class="st27 st28 st32">Rod Stewart</text>
		<text transform="matrix(1.0135 -3.324280e-03 3.280000e-03 1 720.4981 352.3817)" class="st27 st28 st30">(Philadelphia)</text>
	</g>
	<g id="mt9" class="st24">
		<g class="st25">
			<path class="st31" d="M838.9,342.4l-114.1,0.4c-4.3,0-7.7-3.4-7.7-7.7l-0.1-35.5c0-4.3,3.4-7.7,7.7-7.7l114.1-0.4
				c4.3,0,7.7,3.4,7.7,7.7l0.1,35.5C846.6,339,843.2,342.4,838.9,342.4z"/>

				<rect x="773.6" y="283.9" transform="matrix(0.7048 -0.7094 0.7094 0.7048 23.6389 640.5663)" class="st31" width="15.9" height="15.9"/>
		</g>
		<text transform="matrix(1 -3.280000e-03 3.280000e-03 1 750.2692 315.3524)" class="st27 st28 st32">Billy Joel</text>
		<text transform="matrix(1.0135 -3.324280e-03 3.280000e-03 1 752.6308 331.5058)" class="st27 st28 st30">(New York)</text>
	</g>
	<g id="mt13" class="st24">
		<g class="st25">
			<path class="st31" d="M602.3,416.9H488.1c-4.3,0-7.7-3.4-7.7-7.7v-35.5c0-4.3,3.4-7.7,7.7-7.7h114.1c4.3,0,7.7,3.4,7.7,7.7v35.5
				C610,413.5,606.6,416.9,602.3,416.9z"/>

				<rect x="537.2" y="358.1" transform="matrix(0.7071 -0.7071 0.7071 0.7071 -99.1822 492.6878)" class="st31" width="15.9" height="15.9"/>
		</g>
		<text transform="matrix(1 0 0 1 512.1578 389.6833)" class="st27 st28 st29">Metallica</text>
		<text transform="matrix(1.0135 0 0 1 518.7857 405.8455)" class="st27 st28 st30">(St. Louis)</text>
	</g>
	<g id="mt17" class="st24">
		<g class="st25">
			<path class="st31" d="M753.6,609H624.9c-4.3,0-7.7-3.4-7.7-7.7v-35.5c0-4.3,3.4-7.7,7.7-7.7h128.7c4.3,0,7.7,3.4,7.7,7.7v35.5
				C761.3,605.6,757.8,609,753.6,609z"/>

				<rect x="680.4" y="550.2" transform="matrix(0.7071 -0.7071 0.7071 0.7071 -193.0614 650.2148)" class="st31" width="15.9" height="15.9"/>
		</g>
		<text transform="matrix(1 0 0 1 628.3365 581.7869)" class="st27 st28 st29">Reo Speedwagon</text>
		<text transform="matrix(1.0135 0 0 1 654.272 597.947)" class="st27 st28 st30">(Tampa Bay)</text>
	</g>
	<g id="mt12" class="st24">
		<g class="st25">
			<path class="st31" d="M554.2,410.5H410.1c-4.3,0-7.7-3.4-7.7-7.7v-35.5c0-4.3,3.4-7.7,7.7-7.7h144.1c4.3,0,7.7,3.4,7.7,7.7v35.5
				C561.9,407.1,558.5,410.5,554.2,410.5z"/>

				<rect x="473.7" y="351.7" transform="matrix(0.7071 -0.7071 0.7071 0.7071 -113.2602 445.9543)" class="st31" width="15.9" height="15.9"/>
		</g>
		<text transform="matrix(1 0 0 1 412.9624 383.3416)" class="st27 st28 st29">Stevie Ray Vaughan</text>
		<text transform="matrix(1.0135 0 0 1 445.3892 399.5017)" class="st27 st28 st30">(Kansas City)</text>
	</g>
	<g id="mt18" class="st24">
		<g class="st25">
			<path class="st31" d="M556.9,585.5h-174c-4.3,0-7.7-3.4-7.7-7.7v-35.5c0-4.3,3.4-7.7,7.7-7.7h174c4.3,0,7.7,3.4,7.7,7.7v35.5
				C564.6,582,561.2,585.5,556.9,585.5z"/>

				<rect x="462" y="526.6" transform="matrix(0.7071 -0.7071 0.7071 0.7071 -240.3574 488.8856)" class="st31" width="15.9" height="15.9"/>
		</g>
		<text transform="matrix(1 0 0 1 384.8365 558.2273)" class="st27 st28 st29">Paul McCartney &amp; Wings</text>
		<text transform="matrix(1.0135 0 0 1 443.1753 574.3884)" class="st27 st28 st30">(Houston)</text>
	</g>
	<g id="mt5" class="st24">
		<g class="st25">
			<path class="st26" d="M172.8,234.8H58.7c-4.3,0-7.7-3.4-7.7-7.7v-35.5c0-4.3,3.4-7.7,7.7-7.7h114.1c4.3,0,7.7,3.4,7.7,7.7v35.5
				C180.4,231.4,177,234.8,172.8,234.8z"/>

				<rect x="107.7" y="175.9" transform="matrix(0.7071 -0.7071 0.7071 0.7071 -96.1517 135.6489)" class="st26" width="15.9" height="15.9"/>
		</g>
		<text transform="matrix(1 0 0 1 71.7017 207.5506)" class="st27 st28 st29">Steppenwolf</text>
		<text transform="matrix(1.0135 0 0 1 88.19 223.7107)" class="st27 st28 st30">(Portland)</text>
	</g>
	<g id="mt14" class="st24">
		<g class="st25">
			<path class="st26" d="M644.8,351.6H517c-4.3,0-7.7-3.4-7.7-7.7v-35.4c0-4.3,3.4-7.7,7.7-7.7h127.8c4.3,0,7.7,3.4,7.7,7.7v35.5
				C652.5,348.2,649.1,351.6,644.8,351.6z"/>

				<rect x="572.6" y="292.8" transform="matrix(0.7071 -0.7071 0.7071 0.7071 -42.6396 498.5667)" class="st26" width="15.9" height="15.9"/>
		</g>
		<text transform="matrix(1 0 0 1 514.9732 324.4431)" class="st27 st28 st29">Bruce Springsteen</text>
		<text transform="matrix(1.0135 0 0 1 553.855 340.6033)" class="st27 st28 st30">(Chicago)</text>
	</g>
	<g id="mt20" class="st24">
		<g class="st25">
			<path class="st26" d="M737.2,464.1h-87c-4.3,0-7.7-3.4-7.7-7.7v-35.5c0-4.3,3.4-7.7,7.7-7.7h87c4.3,0,7.7,3.4,7.7,7.7v35.5
				C744.9,460.6,741.5,464.1,737.2,464.1z"/>

				<rect x="685.9" y="405.2" transform="matrix(0.7071 -0.7071 0.7071 0.7071 -88.9422 611.6102)" class="st26" width="15.9" height="15.9"/>
		</g>
		<text transform="matrix(1 0 0 1 678.9507 436.8044)" class="st27 st28 st29">Kiss</text>
		<text transform="matrix(1.0135 0 0 1 663.8668 452.9646)" class="st27 st28 st30">(Charlotte)</text>
	</g>
	<g id="mt6" class="st24">
		<g class="st25">
			<path class="st26" d="M864.2,316.3H751.7c-4.3,0-7.7-3.4-7.7-7.7v-35.5c0-4.3,3.4-7.7,7.7-7.7h112.4c4.3,0,7.7,3.4,7.7,7.7v35.5
				C871.8,312.9,868.3,316.3,864.2,316.3z"/>

				<rect x="800" y="257.5" transform="matrix(0.7071 -0.7071 0.7071 0.7071 48.9562 649.0556)" class="st26" width="15.9" height="15.9"/>
		</g>
		<text transform="matrix(1 0 0 1 751.1851 289.1033)" class="st27 st28 st29">Allman Brothers</text>
		<text transform="matrix(1.0135 0 0 1 784.8423 305.2634)" class="st27 st28 st30">(Boston)</text>
	</g>
	<g id="all2">
		<g>
			<g>
				<path class="st33" d="M279.5,44.8c-3.3,0-6.1-2.7-6.1-6.1V16.4c0-3.3,2.7-6.1,6.1-6.1h89v34.4L279.5,44.8L279.5,44.8z"/>
				<path class="st34" d="M368,10.8v33.5h-88.6c-3.1,0-5.6-2.5-5.6-5.6V16.4c0-3.1,2.5-5.6,5.6-5.6L368,10.8 M369,9.9h-89.5
					c-3.6,0-6.6,3-6.6,6.6v22.3c0,3.6,3,6.6,6.6,6.6H369V9.9L369,9.9z"/>
			</g>
			<g>
				<text transform="matrix(1 0 0 1 308.5298 34.5896)" class="st35 st28 st36">All</text>
			</g>
		</g>
	</g>
	<g id="all">
		<g>
			<g>
				<path class="st37" d="M279.5,44.8c-3.3,0-6.1-2.7-6.1-6.1V16.4c0-3.3,2.7-6.1,6.1-6.1h89v34.4L279.5,44.8L279.5,44.8z"/>
				<path class="st35" d="M368,10.8v33.5h-88.6c-3.1,0-5.6-2.5-5.6-5.6V16.4c0-3.1,2.5-5.6,5.6-5.6L368,10.8 M369,9.9h-89.5
					c-3.6,0-6.6,3-6.6,6.6v22.3c0,3.6,3,6.6,6.6,6.6H369V9.9L369,9.9z"/>
			</g>
			<g>
				<text transform="matrix(1 0 0 1 310.9722 34.5896)" class="st33 st28 st36">All</text>
			</g>
		</g>
	</g>
	<g id="nonclassic">
		<g>
			<path class="st33" d="M465.3,44.8V10.4h103.5c3.3,0,6.1,2.7,6.1,6.1v22.3c0,3.3-2.7,6.1-6.1,6.1L465.3,44.8L465.3,44.8z"/>
			<path class="st34" d="M568.9,10.8c3.1,0,5.6,2.5,5.6,5.6v22.3c0,3.1-2.5,5.6-5.6,5.6H465.8V10.8H568.9 M568.9,9.9h-104v35.3h104
				c3.6,0,6.6-3,6.6-6.6V16.4C575.4,12.8,572.5,9.9,568.9,9.9L568.9,9.9z"/>
		</g>
		<g>
			<text transform="matrix(1 0 0 1 480.3501 33.156)" class="st35 st28 st36">Non - classic</text>
		</g>
	</g>
	<g id="nonclassic2" class="st24">
		<g class="st25">
			<path class="st37" d="M465.3,44.8V10.4h103.5c3.3,0,6.1,2.7,6.1,6.1v22.3c0,3.3-2.7,6.1-6.1,6.1L465.3,44.8L465.3,44.8z"/>
			<g>
				<path class="st35" d="M568.9,10.8c3.1,0,5.6,2.5,5.6,5.6v22.3c0,3.1-2.5,5.6-5.6,5.6H465.8V10.8H568.9 M568.9,9.9h-104v35.3h104
					c3.6,0,6.6-3,6.6-6.6V16.4C575.4,12.8,572.5,9.9,568.9,9.9L568.9,9.9z"/>
			</g>
		</g>
		<g class="st25">
			<text transform="matrix(1 0 0 1 480.3501 33.156)" class="st33 st28 st36">Non - classic</text>
		</g>
	</g>
	<g id="classic2">
		<g>
			<g>
				<rect x="369.4" y="10.4" class="st33" width="95" height="34.4"/>
				<path class="st34" d="M463.9,10.8v33.5h-94V10.8H463.9 M464.8,9.9H369v35.3h95.9V9.9L464.8,9.9z"/>
			</g>
			<g>
				<text transform="matrix(0.9981 0 0 1 393.3911 33.156)" class="st35 st28 st36">Classic</text>
			</g>
		</g>
	</g>
	<g id="classic" class="st24">
		<g class="st25">
			<rect x="369.2" y="10.4" class="st37" width="95.1" height="34.4"/>
			<path class="st35" d="M463.9,10.8v33.5h-94.2V10.8H463.9 M464.8,9.9h-96.1v35.3h96.1V9.9L464.8,9.9z"/>
		</g>
		<g class="st25">
			<text transform="matrix(1 0 0 1 393.437 33.156)" class="st33 st28 st36">Classic</text>
		</g>
	</g>
</g>
</svg>
